<svg width="77" height="17" viewBox="0 0 77 17" fill="none" xmlns="http://www.w3.org/2000/svg">
<path d="M10.7461 5.12109C10.681 5.17318 10.6159 5.26432 10.5508 5.39453C10.4987 5.52474 10.4466 5.66797 10.3945 5.82422C10.3424 5.98047 10.2969 6.13672 10.2578 6.29297C10.2318 6.44922 10.2188 6.58594 10.2188 6.70312V6.74219C10.362 6.3776 10.4792 6.07161 10.5703 5.82422C10.6615 5.57682 10.7201 5.34245 10.7461 5.12109ZM20.0234 2.11328C19.8411 2.15234 19.6198 2.26953 19.3594 2.46484C19.099 2.66016 18.8125 2.88802 18.5 3.14844C18.0052 3.55208 17.5495 4.09245 17.1328 4.76953C16.7161 5.43359 16.332 6.13672 15.9805 6.87891C15.6289 7.62109 15.3099 8.35677 15.0234 9.08594C14.737 9.8151 14.4831 10.4466 14.2617 10.9805C13.9492 11.6966 13.6237 12.3867 13.2852 13.0508C12.9596 13.7018 12.6406 14.2812 12.3281 14.7891C12.0286 15.2969 11.7552 15.7005 11.5078 16C11.2604 16.2995 11.0651 16.4492 10.9219 16.4492C10.6745 16.4362 10.4206 16.4036 10.1602 16.3516C9.89974 16.2995 9.65885 16.2148 9.4375 16.0977C9.21615 15.9935 9.02734 15.8568 8.87109 15.6875C8.71484 15.5052 8.61719 15.2839 8.57812 15.0234C8.5651 14.9062 8.55208 14.763 8.53906 14.5938C8.53906 14.4115 8.53906 14.2227 8.53906 14.0273C8.53906 13.7018 8.53906 13.3568 8.53906 12.9922C8.55208 12.6276 8.57161 12.2826 8.59766 11.957C8.35026 12.2174 8.11589 12.4518 7.89453 12.6602C7.67318 12.8685 7.47135 13.0768 7.28906 13.2852C6.85938 13.7799 6.48177 14.2096 6.15625 14.5742C5.84375 14.9388 5.5638 15.2448 5.31641 15.4922C5.08203 15.7396 4.86719 15.9219 4.67188 16.0391C4.48958 16.1562 4.3138 16.2148 4.14453 16.2148C4.05339 16.2148 3.94922 16.1953 3.83203 16.1562C3.61068 16.0651 3.44792 15.8503 3.34375 15.5117C3.23958 15.1602 3.1875 14.7305 3.1875 14.2227C3.1875 13.4023 3.32422 12.4714 3.59766 11.4297C3.67578 11.1562 3.76693 10.8047 3.87109 10.375C3.98828 9.93229 4.10547 9.45703 4.22266 8.94922C4.35286 8.42839 4.47656 7.88151 4.59375 7.30859C4.71094 6.73568 4.8151 6.18229 4.90625 5.64844C5.01042 5.10156 5.08854 4.58724 5.14062 4.10547C5.20573 3.61068 5.23828 3.1875 5.23828 2.83594V2.62109C4.88672 2.66016 4.48958 2.77734 4.04688 2.97266C3.60417 3.15495 3.1875 3.36979 2.79688 3.61719C2.40625 3.86458 2.0612 4.125 1.76172 4.39844C1.47526 4.67188 1.30599 4.91276 1.25391 5.12109L0.00390625 4.39844C0.21224 4.09896 0.492188 3.77344 0.84375 3.42188C1.18229 3.07031 1.54036 2.74479 1.91797 2.44531C2.29557 2.13281 2.66667 1.86589 3.03125 1.64453C3.39583 1.42318 3.70833 1.28646 3.96875 1.23438C4.09896 1.20833 4.19661 1.19531 4.26172 1.19531C4.53516 1.19531 4.84115 1.2474 5.17969 1.35156C5.53125 1.45573 5.85677 1.59896 6.15625 1.78125C6.45573 1.95052 6.70964 2.15234 6.91797 2.38672C7.1263 2.62109 7.23047 2.86198 7.23047 3.10938C7.23047 3.26562 7.1849 3.57161 7.09375 4.02734C7.0026 4.47005 6.88542 5.01042 6.74219 5.64844C6.61198 6.27344 6.46224 6.95703 6.29297 7.69922C6.1237 8.44141 5.96094 9.18359 5.80469 9.92578C5.66146 10.6549 5.52474 11.3516 5.39453 12.0156C5.27734 12.6667 5.19922 13.2201 5.16016 13.6758C5.45964 13.3372 5.80469 12.9336 6.19531 12.4648C6.58594 11.9961 6.96354 11.5208 7.32812 11.0391C7.69271 10.5573 8.01823 10.1016 8.30469 9.67188C8.60417 9.24219 8.8125 8.89062 8.92969 8.61719C8.98177 8.1875 9.04036 7.73828 9.10547 7.26953C9.18359 6.78776 9.27474 6.32552 9.37891 5.88281C9.49609 5.4401 9.63281 5.04297 9.78906 4.69141C9.95833 4.32682 10.1667 4.04688 10.4141 3.85156C10.6094 3.70833 10.8372 3.63672 11.0977 3.63672C11.2799 3.63672 11.4557 3.66927 11.625 3.73438C11.8073 3.79948 11.9701 3.88411 12.1133 3.98828C12.2565 4.09245 12.3672 4.20964 12.4453 4.33984C12.5365 4.45703 12.582 4.56771 12.582 4.67188C12.582 4.76302 12.5169 4.98438 12.3867 5.33594C12.2695 5.6875 12.0938 6.11719 11.8594 6.625C11.638 7.13281 11.3711 7.6862 11.0586 8.28516C10.7591 8.87109 10.4336 9.45703 10.082 10.043C10.069 10.1732 10.0625 10.3099 10.0625 10.4531C10.0625 10.5833 10.0625 10.7201 10.0625 10.8633C10.0625 11.2279 10.069 11.6055 10.082 11.9961C10.0951 12.3737 10.1146 12.7448 10.1406 13.1094C10.1667 13.4609 10.2057 13.793 10.2578 14.1055C10.3229 14.418 10.3945 14.6849 10.4727 14.9062C10.707 14.5417 10.974 14.0534 11.2734 13.4414C11.5859 12.8164 11.9115 12.1393 12.25 11.4102C12.6016 10.668 12.9596 9.90625 13.3242 9.125C13.6888 8.33073 14.0404 7.57552 14.3789 6.85938C14.7174 6.14323 15.0299 5.4987 15.3164 4.92578C15.6159 4.33984 15.8763 3.89062 16.0977 3.57812C16.3971 3.1875 16.7422 2.81641 17.1328 2.46484C17.4714 2.16536 17.875 1.86589 18.3438 1.56641C18.8255 1.26693 19.3724 1.03906 19.9844 0.882812L20.0234 2.11328Z" fill="#FFC764"/>
<path d="M26 12.7578C26.013 12.7188 26.0195 12.6471 26.0195 12.543C26.0195 12.3086 25.9414 12.0352 25.7852 11.7227C25.6289 11.4102 25.4336 11.0911 25.1992 10.7656C24.9779 10.4401 24.737 10.1276 24.4766 9.82812C24.2292 9.52865 24.0078 9.28125 23.8125 9.08594C23.5911 9.38542 23.2917 9.77604 22.9141 10.2578C22.5495 10.7266 22.1589 11.2083 21.7422 11.7031C22.1068 11.8333 22.4258 11.9375 22.6992 12.0156C22.9727 12.0807 23.181 12.1133 23.3242 12.1133H23.3438L23.1094 13.3633C22.849 13.3372 22.5104 13.2656 22.0938 13.1484C21.6901 13.0312 21.2734 12.901 20.8438 12.7578C20.6484 12.9922 20.4596 13.207 20.2773 13.4023C20.1081 13.5977 19.9518 13.7799 19.8086 13.9492C20.2253 14.3138 20.6484 14.6328 21.0781 14.9062C21.5208 15.1667 21.8724 15.3099 22.1328 15.3359C22.1589 15.349 22.1914 15.3555 22.2305 15.3555C22.5039 15.3555 22.8359 15.2643 23.2266 15.082C23.6302 14.8867 24.0208 14.6589 24.3984 14.3984C24.7891 14.125 25.1341 13.8385 25.4336 13.5391C25.7331 13.2396 25.9219 12.9792 26 12.7578ZM18.9297 12.9922C19.0339 12.875 19.1315 12.7578 19.2227 12.6406C19.3138 12.5234 19.4049 12.4062 19.4961 12.2891C19.3659 12.237 19.2357 12.1849 19.1055 12.1328C18.9883 12.0807 18.8646 12.0286 18.7344 11.9766C18.6042 11.9245 18.4805 11.8724 18.3633 11.8203C18.3893 12.0026 18.4479 12.1914 18.5391 12.3867C18.6432 12.582 18.7734 12.7839 18.9297 12.9922ZM24.8672 2.32812C24.6719 2.35417 24.4701 2.45182 24.2617 2.62109C24.0664 2.79036 23.8841 2.9987 23.7148 3.24609C23.5586 3.49349 23.4219 3.76693 23.3047 4.06641C23.2005 4.36589 23.1484 4.67188 23.1484 4.98438C23.1484 5.20573 23.181 5.42057 23.2461 5.62891C23.3242 5.82422 23.4349 6.00651 23.5781 6.17578C23.6042 6.21484 23.6302 6.26042 23.6562 6.3125C23.6823 6.35156 23.7083 6.40365 23.7344 6.46875C23.7344 6.46875 23.7409 6.48177 23.7539 6.50781C23.793 6.44271 23.832 6.38411 23.8711 6.33203C23.9102 6.27995 23.9427 6.22786 23.9688 6.17578C24.2682 5.75911 24.5417 5.39453 24.7891 5.08203C25.0365 4.75651 25.1992 4.50911 25.2773 4.33984C25.5768 3.72786 25.7266 3.27214 25.7266 2.97266C25.7266 2.76432 25.668 2.62109 25.5508 2.54297C25.4336 2.45182 25.3034 2.38021 25.1602 2.32812C25.1211 2.3151 25.0625 2.30859 24.9844 2.30859C24.9323 2.30859 24.8932 2.3151 24.8672 2.32812ZM24.8086 7.77734C25.2253 8.19401 25.6289 8.60417 26.0195 9.00781C26.4102 9.39844 26.6706 9.74349 26.8008 10.043C26.944 10.3685 27.0547 10.7786 27.1328 11.2734C27.224 11.7682 27.2695 12.2565 27.2695 12.7383C27.2695 13.0117 27.2565 13.2721 27.2305 13.5195C27.2044 13.7539 27.1589 13.9622 27.0938 14.1445C27.0286 14.3138 26.8854 14.5026 26.6641 14.7109C26.4427 14.9062 26.1758 15.1081 25.8633 15.3164C25.5508 15.5247 25.2057 15.7266 24.8281 15.9219C24.4635 16.1172 24.1055 16.293 23.7539 16.4492C23.4154 16.6055 23.0964 16.7292 22.7969 16.8203C22.5104 16.9115 22.2891 16.957 22.1328 16.957H22.0938C21.9505 16.957 21.7552 16.8984 21.5078 16.7812C21.2734 16.6641 21.0065 16.5078 20.707 16.3125C20.4206 16.1172 20.1146 15.8958 19.7891 15.6484C19.4635 15.388 19.151 15.1211 18.8516 14.8477L18.5 15.1992C18.3958 15.3034 18.2656 15.4336 18.1094 15.5898C17.9661 15.7461 17.8229 15.9089 17.6797 16.0781L16.6445 15.7852C16.7878 15.6419 16.9831 15.4271 17.2305 15.1406C17.4779 14.8542 17.7643 14.5026 18.0898 14.0859C17.9076 13.8776 17.7513 13.6823 17.6211 13.5C17.5039 13.3177 17.4193 13.1419 17.3672 12.9727C17.3151 12.8424 17.2435 12.6862 17.1523 12.5039C17.0612 12.3086 16.9701 12.1133 16.8789 11.918C16.7878 11.7227 16.7096 11.5273 16.6445 11.332C16.5794 11.1367 16.5404 10.9544 16.5273 10.7852C16.5273 10.707 16.5664 10.6159 16.6445 10.5117C16.7096 10.4076 16.7943 10.3099 16.8984 10.2188C16.9896 10.1146 17.0807 10.0299 17.1719 9.96484C17.276 9.89974 17.3542 9.86719 17.4062 9.86719C17.4062 9.86719 17.4128 9.8737 17.4258 9.88672C17.8034 10.082 18.2461 10.2969 18.7539 10.5312C19.2747 10.7526 19.8021 10.9674 20.3359 11.1758C20.7526 10.6289 21.1628 10.082 21.5664 9.53516C21.9831 8.98828 22.3802 8.44792 22.7578 7.91406C22.4583 7.4974 22.1784 7.02865 21.918 6.50781C21.6706 5.98698 21.5469 5.46615 21.5469 4.94531C21.5469 4.86719 21.5469 4.78255 21.5469 4.69141C21.5469 4.60026 21.5599 4.51562 21.5859 4.4375C21.6771 4.03385 21.8464 3.63021 22.0938 3.22656C22.3411 2.82292 22.6146 2.46484 22.9141 2.15234C23.2135 1.82682 23.5065 1.56641 23.793 1.37109C24.0924 1.17578 24.3333 1.07812 24.5156 1.07812H24.5352C24.7044 1.07812 24.9648 1.1237 25.3164 1.21484C25.668 1.29297 26.013 1.42969 26.3516 1.625C26.6901 1.82031 26.9831 2.07422 27.2305 2.38672C27.4909 2.6862 27.6211 3.05078 27.6211 3.48047C27.6211 3.81901 27.5234 4.17708 27.3281 4.55469C27.1458 4.93229 26.9115 5.3099 26.625 5.6875C26.3385 6.0651 26.0326 6.4362 25.707 6.80078C25.3815 7.15234 25.082 7.47786 24.8086 7.77734ZM33.5977 7.93359C33.4935 7.93359 33.3503 8.01172 33.168 8.16797C32.9987 8.32422 32.8099 8.53255 32.6016 8.79297C32.4062 9.04036 32.1979 9.33333 31.9766 9.67188C31.7552 10.0104 31.5599 10.362 31.3906 10.7266C31.3255 10.8568 31.2669 10.987 31.2148 11.1172C31.1628 11.2474 31.1107 11.3841 31.0586 11.5273C31.3971 11.4622 31.7487 11.3841 32.1133 11.293C32.4909 11.1888 32.7708 11.0781 32.9531 10.9609C33.0443 10.8958 33.1419 10.7656 33.2461 10.5703C33.3633 10.375 33.4674 10.1602 33.5586 9.92578C33.6628 9.67839 33.7474 9.42448 33.8125 9.16406C33.8776 8.89062 33.9102 8.65625 33.9102 8.46094C33.9102 8.31771 33.8841 8.19401 33.832 8.08984C33.7799 7.98568 33.7018 7.93359 33.5977 7.93359ZM37.9336 13.5C37.6992 13.6693 37.4258 13.8646 37.1133 14.0859C36.8008 14.2943 36.4688 14.5156 36.1172 14.75C35.7786 14.9714 35.4336 15.1927 35.082 15.4141C34.7435 15.6354 34.4245 15.8307 34.125 16C33.8385 16.1823 33.5911 16.3255 33.3828 16.4297C33.1745 16.5469 33.0378 16.612 32.9727 16.625C32.9336 16.638 32.8815 16.6445 32.8164 16.6445C32.5951 16.6445 32.3021 16.5859 31.9375 16.4688C31.5859 16.3646 31.2279 16.2279 30.8633 16.0586C30.4987 15.9023 30.1602 15.7331 29.8477 15.5508C29.5482 15.3555 29.3464 15.1732 29.2422 15.0039C29.1641 14.8607 29.1055 14.6784 29.0664 14.457C29.0404 14.2227 29.0273 13.9557 29.0273 13.6562C29.0273 13.3958 29.0404 13.1224 29.0664 12.8359C29.0924 12.5365 29.125 12.2565 29.1641 11.9961C29.2161 11.7227 29.2682 11.4753 29.3203 11.2539C29.3854 11.0326 29.457 10.8568 29.5352 10.7266C29.6263 10.5443 29.7695 10.3164 29.9648 10.043C30.1602 9.75651 30.3815 9.46354 30.6289 9.16406C30.8893 8.85156 31.1628 8.53906 31.4492 8.22656C31.7357 7.91406 32.0221 7.63411 32.3086 7.38672C32.5951 7.1263 32.8685 6.91797 33.1289 6.76172C33.4023 6.59245 33.6432 6.5013 33.8516 6.48828C33.8646 6.48828 33.8711 6.48828 33.8711 6.48828C33.8841 6.47526 33.9036 6.46875 33.9297 6.46875C34.138 6.46875 34.3464 6.5599 34.5547 6.74219C34.763 6.92448 34.9453 7.14583 35.1016 7.40625C35.2578 7.66667 35.3815 7.94661 35.4727 8.24609C35.5768 8.53255 35.6289 8.79297 35.6289 9.02734C35.6289 9.14453 35.6224 9.22917 35.6094 9.28125C35.5573 9.48958 35.4401 9.75 35.2578 10.0625C35.0755 10.362 34.8737 10.6615 34.6523 10.9609C34.431 11.2474 34.2161 11.5078 34.0078 11.7422C33.7995 11.9635 33.6432 12.1133 33.5391 12.1914C33.4609 12.2565 33.3177 12.3216 33.1094 12.3867C32.9141 12.4388 32.6797 12.4974 32.4062 12.5625C32.1458 12.6146 31.8659 12.6667 31.5664 12.7188C31.2669 12.7708 30.974 12.8164 30.6875 12.8555C30.6354 13.1159 30.5964 13.3438 30.5703 13.5391C30.5443 13.7214 30.5247 13.8516 30.5117 13.9297C30.5378 14.0729 30.6159 14.2161 30.7461 14.3594C30.8763 14.5026 31.0391 14.6328 31.2344 14.75C31.4297 14.8672 31.6445 14.9648 31.8789 15.043C32.1263 15.1081 32.3737 15.1406 32.6211 15.1406C32.6732 15.1406 32.7253 15.1406 32.7773 15.1406C32.8424 15.1406 32.901 15.1341 32.9531 15.1211C33.1875 15.056 33.5 14.9062 33.8906 14.6719C34.2812 14.4375 34.6849 14.1706 35.1016 13.8711C35.5312 13.5716 35.9349 13.2656 36.3125 12.9531C36.7031 12.6276 37.0026 12.3411 37.2109 12.0938L37.9336 13.5ZM38.9688 14.8281C39.112 14.8281 39.3008 14.7565 39.5352 14.6133C39.7695 14.457 40.0234 14.2552 40.2969 14.0078C40.5703 13.7604 40.8503 13.4805 41.1367 13.168C41.4362 12.8555 41.7227 12.543 41.9961 12.2305C42.1393 11.7747 42.3216 11.2214 42.543 10.5703C42.7773 9.90625 43.0378 9.1901 43.3242 8.42188L43.0508 8.94922C43.0117 8.75391 42.9466 8.57161 42.8555 8.40234C42.7643 8.23307 42.6602 8.08333 42.543 7.95312C42.4258 7.8099 42.3021 7.69922 42.1719 7.62109C42.0547 7.54297 41.9505 7.50391 41.8594 7.50391C41.7943 7.50391 41.7487 7.51693 41.7227 7.54297C41.6706 7.58203 41.5534 7.70573 41.3711 7.91406C41.2018 8.10938 40.9935 8.35677 40.7461 8.65625C40.5117 8.95573 40.2578 9.28776 39.9844 9.65234C39.724 10.0169 39.4766 10.375 39.2422 10.7266C39.0208 11.0781 38.8255 11.4102 38.6562 11.7227C38.487 12.0221 38.3893 12.263 38.3633 12.4453C38.3372 12.6276 38.3112 12.8164 38.2852 13.0117C38.2591 13.194 38.2461 13.3763 38.2461 13.5586C38.2461 13.8971 38.2917 14.1901 38.3828 14.4375C38.487 14.6849 38.6693 14.8151 38.9297 14.8281H38.9688ZM47.7773 13.5195C47.6081 13.7148 47.3672 13.9883 47.0547 14.3398C46.7422 14.6914 46.4036 15.043 46.0391 15.3945C45.6875 15.7331 45.3294 16.026 44.9648 16.2734C44.6133 16.5339 44.3138 16.6641 44.0664 16.6641H44.0273C43.7799 16.6641 43.513 16.6315 43.2266 16.5664C42.9401 16.5013 42.6732 16.4102 42.4258 16.293C42.1914 16.1888 41.9896 16.0651 41.8203 15.9219C41.6641 15.7656 41.5859 15.5964 41.5859 15.4141V15.3945C41.5859 15.2643 41.5924 15.1146 41.6055 14.9453C41.6185 14.763 41.6315 14.5742 41.6445 14.3789C41.0846 14.9258 40.5247 15.3815 39.9648 15.7461C39.418 16.1107 38.9362 16.293 38.5195 16.293C38.4154 16.293 38.3438 16.2865 38.3047 16.2734C38.0703 16.2344 37.8555 16.1237 37.6602 15.9414C37.4648 15.7461 37.2956 15.5117 37.1523 15.2383C37.0221 14.9518 36.918 14.6393 36.8398 14.3008C36.7617 13.9622 36.7227 13.6237 36.7227 13.2852C36.7227 12.7904 36.8008 12.3281 36.957 11.8984C37.0612 11.625 37.2109 11.2995 37.4062 10.9219C37.6016 10.5443 37.8229 10.1471 38.0703 9.73047C38.3307 9.3138 38.6042 8.90365 38.8906 8.5C39.1901 8.08333 39.4831 7.70573 39.7695 7.36719C40.069 7.02865 40.362 6.75521 40.6484 6.54688C40.9349 6.32552 41.2018 6.19531 41.4492 6.15625C41.5143 6.14323 41.5729 6.13672 41.625 6.13672C41.6771 6.13672 41.7292 6.13672 41.7812 6.13672C42.0547 6.13672 42.2956 6.17578 42.5039 6.25391C42.7253 6.33203 42.9141 6.4362 43.0703 6.56641C43.2396 6.68359 43.3763 6.8138 43.4805 6.95703C43.5846 7.10026 43.6628 7.23047 43.7148 7.34766C43.7539 7.19141 43.7995 7.06771 43.8516 6.97656L45.1211 7.17188C44.7695 8.05729 44.444 8.95573 44.1445 9.86719C43.8451 10.7656 43.6107 11.625 43.4414 12.4453L43.4609 12.5039L43.4219 12.543C43.3438 12.9336 43.2786 13.3047 43.2266 13.6562C43.1875 14.0078 43.168 14.3333 43.168 14.6328C43.168 14.776 43.168 14.8997 43.168 15.0039C43.181 15.1081 43.194 15.2122 43.207 15.3164C43.5326 15.1992 43.8971 15.0234 44.3008 14.7891C44.7174 14.5547 45.1211 14.2943 45.5117 14.0078C45.9154 13.7214 46.293 13.4284 46.6445 13.1289C46.9961 12.8164 47.2826 12.543 47.5039 12.3086L47.7773 13.5195ZM56.8789 13.9492C56.7357 14.2227 56.5599 14.4961 56.3516 14.7695C56.1432 15.043 55.9023 15.3034 55.6289 15.5508C55.3685 15.7852 55.082 15.987 54.7695 16.1562C54.457 16.3385 54.1315 16.4622 53.793 16.5273C53.6497 16.5534 53.513 16.5729 53.3828 16.5859C53.2656 16.599 53.1419 16.6055 53.0117 16.6055C52.4518 16.6055 51.9635 16.4883 51.5469 16.2539C51.1302 16.0326 50.8958 15.6875 50.8438 15.2188V15.0234C50.8438 14.737 50.8698 14.3333 50.9219 13.8125C50.987 13.2786 51.0586 12.7188 51.1367 12.1328C51.2279 11.5339 51.319 10.9479 51.4102 10.375C51.5013 9.78906 51.5794 9.29427 51.6445 8.89062L50.4141 8.34375L47.1914 16.3906L45.4922 16.1367C45.5703 15.9544 45.7201 15.6224 45.9414 15.1406C46.1628 14.6589 46.4102 14.125 46.6836 13.5391C46.957 12.9531 47.224 12.3737 47.4844 11.8008C47.7578 11.2148 47.9792 10.7331 48.1484 10.3555C48.2917 10.0039 48.4479 9.57422 48.6172 9.06641C48.7865 8.55859 48.9427 8.05729 49.0859 7.5625C49.2292 7.05469 49.3464 6.59896 49.4375 6.19531C49.5286 5.79167 49.5742 5.51823 49.5742 5.375L51.293 5.80469C51.2539 5.85677 51.2279 5.91536 51.2148 5.98047C51.2018 6.03255 51.1953 6.09115 51.1953 6.15625C51.1953 6.3125 51.2214 6.46875 51.2734 6.625C51.3385 6.76823 51.4102 6.90495 51.4883 7.03516C51.5794 7.15234 51.6771 7.25 51.7812 7.32812C51.8984 7.40625 52.0091 7.44531 52.1133 7.44531C52.1914 7.44531 52.263 7.41276 52.3281 7.34766C52.4062 7.26953 52.4583 7.13932 52.4844 6.95703C52.4974 6.87891 52.5495 6.80729 52.6406 6.74219C52.7448 6.66406 52.8555 6.59896 52.9727 6.54688C53.1029 6.48177 53.2331 6.4362 53.3633 6.41016C53.5065 6.37109 53.6237 6.35156 53.7148 6.35156C53.8451 6.35156 53.9167 6.3776 53.9297 6.42969C53.9948 6.52083 54.0534 6.63151 54.1055 6.76172C54.1706 6.87891 54.2031 7.00911 54.2031 7.15234C54.2031 7.29557 54.1706 7.43229 54.1055 7.5625C54.0534 7.69271 53.9557 7.8099 53.8125 7.91406C53.6042 8.07031 53.4219 8.32422 53.2656 8.67578C53.1094 9.02734 52.9727 9.43099 52.8555 9.88672C52.7513 10.3424 52.6732 10.8307 52.6211 11.3516C52.569 11.8724 52.543 12.3867 52.543 12.8945C52.543 13.3893 52.569 13.8646 52.6211 14.3203C52.6732 14.776 52.7578 15.1536 52.875 15.4531C53.2786 15.375 53.6302 15.2773 53.9297 15.1602C54.2292 15.043 54.4961 14.8932 54.7305 14.7109C54.9779 14.5156 55.1992 14.2878 55.3945 14.0273C55.6029 13.7539 55.8047 13.4219 56 13.0312L56.8789 13.9492ZM61.8984 8.48047C61.8724 8.51953 61.8073 8.61068 61.7031 8.75391C61.599 8.89714 61.5469 9.02083 61.5469 9.125C61.5469 9.24219 61.6185 9.30078 61.7617 9.30078H61.7812C61.9896 9.28776 62.0938 9.20964 62.0938 9.06641C62.0938 8.96224 62.0677 8.85807 62.0156 8.75391C61.9635 8.63672 61.9245 8.54557 61.8984 8.48047ZM65.8438 13.3047C65.7396 13.4609 65.5312 13.6628 65.2188 13.9102C64.9193 14.1445 64.5612 14.3919 64.1445 14.6523C63.7409 14.8997 63.2982 15.1536 62.8164 15.4141C62.3477 15.6615 61.8919 15.8893 61.4492 16.0977C61.0065 16.306 60.6029 16.4688 60.2383 16.5859C59.8867 16.7161 59.6263 16.7812 59.457 16.7812C59.1966 16.7812 58.8516 16.7227 58.4219 16.6055C57.9922 16.5013 57.5755 16.3385 57.1719 16.1172C56.7682 15.9089 56.4167 15.6549 56.1172 15.3555C55.8307 15.043 55.6875 14.6979 55.6875 14.3203V14.2812C55.7005 13.8906 55.7591 13.4349 55.8633 12.9141C55.9805 12.3932 56.1237 11.8659 56.293 11.332C56.4753 10.7982 56.6641 10.2839 56.8594 9.78906C57.0677 9.28125 57.263 8.85807 57.4453 8.51953C57.6146 8.20703 57.8229 7.91406 58.0703 7.64062C58.3177 7.35417 58.5716 7.10677 58.832 6.89844C59.1055 6.67708 59.3789 6.5013 59.6523 6.37109C59.9258 6.24089 60.1797 6.17578 60.4141 6.17578C60.4401 6.17578 60.4661 6.18229 60.4922 6.19531C60.5312 6.19531 60.5638 6.19531 60.5898 6.19531C60.7591 6.22135 60.9544 6.30599 61.1758 6.44922C61.3971 6.57943 61.6185 6.73568 61.8398 6.91797C61.9831 6.77474 62.1263 6.63802 62.2695 6.50781C62.4128 6.3776 62.556 6.26693 62.6992 6.17578L63.4805 7.34766L62.7969 7.97266C62.9141 8.18099 63.0052 8.38932 63.0703 8.59766C63.1484 8.79297 63.1875 8.98828 63.1875 9.18359C63.1875 9.2487 63.181 9.30729 63.168 9.35938C63.168 9.41146 63.1615 9.47005 63.1484 9.53516C63.0443 9.91276 62.8294 10.1927 62.5039 10.375C62.1784 10.5443 61.8529 10.6289 61.5273 10.6289C61.2669 10.6289 61.0456 10.5833 60.8633 10.4922C60.681 10.388 60.5638 10.2513 60.5117 10.082C60.4857 9.97786 60.4727 9.89323 60.4727 9.82812C60.4727 9.60677 60.5182 9.33984 60.6094 9.02734C60.7135 8.71484 60.8503 8.39583 61.0195 8.07031C60.8633 7.9401 60.707 7.82943 60.5508 7.73828C60.3945 7.64714 60.2513 7.59505 60.1211 7.58203C60.0299 7.58203 59.8932 7.70573 59.7109 7.95312C59.5286 8.20052 59.3268 8.52604 59.1055 8.92969C58.8971 9.32031 58.6758 9.76953 58.4414 10.2773C58.207 10.7721 57.9922 11.2734 57.7969 11.7812C57.6146 12.276 57.4648 12.7578 57.3477 13.2266C57.2305 13.6823 57.1719 14.0729 57.1719 14.3984C57.1719 14.724 57.224 14.9388 57.3281 15.043C57.4062 15.082 57.5039 15.1146 57.6211 15.1406C57.8424 15.2057 58.1419 15.2383 58.5195 15.2383C58.832 15.2383 59.2487 15.1797 59.7695 15.0625C60.2904 14.9323 60.8763 14.7305 61.5273 14.457C62.1784 14.1836 62.8685 13.8255 63.5977 13.3828C64.3398 12.9401 65.0951 12.3932 65.8633 11.7422L65.8438 13.3047ZM68.0117 7.81641C68.207 7.47786 68.4089 7.08724 68.6172 6.64453C68.8255 6.20182 69.0143 5.7526 69.1836 5.29688C69.3659 4.84115 69.5156 4.40495 69.6328 3.98828C69.75 3.57161 69.8086 3.22005 69.8086 2.93359C69.8086 2.77734 69.7826 2.63411 69.7305 2.50391C69.5482 2.81641 69.3594 3.21354 69.1641 3.69531C68.9818 4.17708 68.8125 4.67839 68.6562 5.19922C68.5 5.70703 68.3633 6.20182 68.2461 6.68359C68.1289 7.15234 68.0508 7.52995 68.0117 7.81641ZM76.332 13.9297C75.9805 14.4505 75.6094 14.8672 75.2188 15.1797C74.8411 15.4922 74.4635 15.7396 74.0859 15.9219C73.7214 16.0911 73.3633 16.2018 73.0117 16.2539C72.6732 16.319 72.3672 16.3516 72.0938 16.3516C71.9505 16.3516 71.8203 16.3451 71.7031 16.332C71.599 16.332 71.5078 16.3255 71.4297 16.3125C71.3385 16.2995 71.2604 16.2799 71.1953 16.2539C70.7917 16.1237 70.5117 15.8958 70.3555 15.5703C70.2122 15.2448 70.1406 14.8542 70.1406 14.3984C70.1406 13.9427 70.1927 13.4479 70.2969 12.9141C70.4141 12.3802 70.5378 11.8529 70.668 11.332C70.8112 10.7982 70.9414 10.2969 71.0586 9.82812C71.1758 9.35938 71.2344 8.96224 71.2344 8.63672C71.2344 8.53255 71.2214 8.41536 71.1953 8.28516C70.8177 8.40234 70.4336 8.57161 70.043 8.79297C69.6654 9.01432 69.3008 9.26823 68.9492 9.55469C68.6107 9.82812 68.2982 10.1341 68.0117 10.4727C67.7253 10.7982 67.5039 11.1237 67.3477 11.4492C67.2305 11.6836 67.1523 11.8008 67.1133 11.8008C67.1133 11.8008 67.1068 11.7878 67.0938 11.7617L66.1758 16.0977L64.4766 15.668C64.5417 15.3685 64.6393 14.9518 64.7695 14.418C64.8997 13.8841 65.043 13.2786 65.1992 12.6016C65.3685 11.9115 65.5508 11.1823 65.7461 10.4141C65.9544 9.63281 66.1628 8.85156 66.3711 8.07031C66.5794 7.28906 66.7943 6.52734 67.0156 5.78516C67.237 5.04297 67.4518 4.3724 67.6602 3.77344C67.8685 3.16146 68.0638 2.64714 68.2461 2.23047C68.4414 1.80078 68.6107 1.51432 68.7539 1.37109C68.8971 1.22786 69.0404 1.13021 69.1836 1.07812C69.3398 1.01302 69.4896 0.980469 69.6328 0.980469C69.8411 0.980469 70.0365 1.04557 70.2188 1.17578C70.4141 1.29297 70.5833 1.44922 70.7266 1.64453C70.8698 1.83984 70.9805 2.0612 71.0586 2.30859C71.1497 2.54297 71.1953 2.77734 71.1953 3.01172C71.1953 3.14193 71.1562 3.34375 71.0781 3.61719C71 3.89062 70.8893 4.21615 70.7461 4.59375C70.6159 4.97135 70.4596 5.38802 70.2773 5.84375C70.0951 6.29948 69.8997 6.78125 69.6914 7.28906C69.9518 7.09375 70.1862 6.95052 70.3945 6.85938C70.6159 6.76823 70.8438 6.70964 71.0781 6.68359H71.1367C71.2799 6.68359 71.4688 6.74219 71.7031 6.85938C71.9505 6.96354 72.1849 7.09375 72.4062 7.25C72.6406 7.39323 72.8359 7.54297 72.9922 7.69922C73.1615 7.85547 73.2461 7.97917 73.2461 8.07031V8.10938C73.2201 8.40885 73.1224 8.82552 72.9531 9.35938C72.7839 9.88021 72.6016 10.4401 72.4062 11.0391C72.2109 11.638 72.0352 12.224 71.8789 12.7969C71.7227 13.3698 71.6445 13.8581 71.6445 14.2617C71.6445 14.6654 71.7422 14.9323 71.9375 15.0625C71.9635 15.0755 72.0026 15.0885 72.0547 15.1016C72.1068 15.1146 72.2174 15.1211 72.3867 15.1211C72.543 15.1211 72.7318 15.0951 72.9531 15.043C73.1875 14.9909 73.4414 14.8802 73.7148 14.7109C74.0013 14.5417 74.3008 14.3008 74.6133 13.9883C74.9388 13.6628 75.2773 13.2396 75.6289 12.7188L76.332 13.9297Z" fill="white"/>
</svg>
